<svg width="17" height="24" viewBox="0 0 17 24" fill="none" xmlns="http://www.w3.org/2000/svg">
<path d="M8.4 24C10.6278 24 12.7644 23.115 14.3397 21.5397C15.915 19.9644 16.8 17.8278 16.8 15.6V8.4C16.8 6.17218 15.915 4.03561 14.3397 2.4603C12.7644 0.884997 10.6278 0 8.4 0C6.17218 0 4.03561 0.884997 2.4603 2.4603C0.884997 4.03561 0 6.17218 0 8.4V15.6C0 17.8278 0.884997 19.9644 2.4603 21.5397C4.03561 23.115 6.17218 24 8.4 24ZM1.2 8.4C1.2 6.49044 1.95857 4.65909 3.30883 3.30883C4.65909 1.95857 6.49044 1.2 8.4 1.2C10.3096 1.2 12.1409 1.95857 13.4912 3.30883C14.8414 4.65909 15.6 6.49044 15.6 8.4V15.6C15.6 17.5096 14.8414 19.3409 13.4912 20.6912C12.1409 22.0414 10.3096 22.8 8.4 22.8C6.49044 22.8 4.65909 22.0414 3.30883 20.6912C1.95857 19.3409 1.2 17.5096 1.2 15.6V8.4Z" fill="#FF0000"/>
<path d="M7.80002 11.7H7.85402L7.97402 11.826C8.0298 11.8822 8.09616 11.9269 8.16928 11.9573C8.24239 11.9878 8.32082 12.0035 8.40002 12.0035C8.47923 12.0035 8.55765 11.9878 8.63077 11.9573C8.70388 11.9269 8.77024 11.8822 8.82602 11.826L8.94602 11.7H9.00002V11.646L12.426 8.22598L11.574 7.37398L9.00002 9.95398V3.59998H7.80002V9.95398L5.22602 7.37398L4.37402 8.22598L7.80002 11.646V11.7Z" fill="#FF0000"/>
</svg>
