<svg width="55" height="78" viewBox="0 0 55 78" fill="none" xmlns="http://www.w3.org/2000/svg">
<path d="M54.4704 30.0352L54.1568 29.888V30.3712L53.904 30.656L53.4496 31.3312L53.1968 31.5008L52.4896 32.3552L52.2048 32.8096L51.8656 33.5712L51.4976 33.632L51.1584 33.4336L50.9568 32.528L51.0112 31.4848L51.2416 30.5152L51.8016 29.6096L52.9376 27.9104L53.616 26.528L53.6992 25.5584L53.5904 25.2512L53.392 25.4496L53.0528 26.2944L52.5376 27.1488L51.776 27.7728L50.8992 28.6176L49.5936 30.1472L49.3408 30.1248L49.2576 29.8624L49.2256 29.2384L49.3088 28.0768L49.7088 26.7776L50.416 25.3344L51.3536 24.1728L52.5152 23.1808L52.624 22.9504L52.4864 22.8416L51.8944 23.1488L51.4112 23.4624L50.5888 24.1696L49.568 25.0752L48.8384 26.0672L48.128 27.3664L47.7376 28.4192L47.6224 29.4656L47.568 30.88L47.9072 32.3552L48.2464 33.632L48.8992 35.6384L49.3216 38.0448L49.5744 39.8816V40.8736L49.4656 41.9168L49.296 42.7712L48.9792 43.7312L47.7888 45.2288L46.5728 46.336L45.0144 47.2128L43.5168 47.296L43.3184 46.5664L42.7808 45.5136L42.0448 44.4992L41.5616 43.9008L40.9152 43.024L39.5232 41.696L38.1088 40.5344L37.488 40.0512L35.536 38.7296L32.7328 36.3776L31.2032 34.48L29.5296 31.7376L29.0752 30.0928L29.1904 29.072L29.4208 28.8736L30.0128 29.2736L30.9504 29.728L31.712 29.696L32.5856 30.096L33.5232 30.6656L34.0064 31.056L34.6304 31.488L35.2768 31.5712L35.424 31.2864L35.2544 31.2544L35.056 31.3376L34.7424 31.1392L34.464 30.7168L34.064 30.064L33.296 29.3568L32.5344 29.072L32.112 28.9888L32.1984 28.7648H32.7904L33.4752 28.9888L34.4672 29.6416L34.9216 29.84L35.0912 29.6096L34.8064 29.2192L34.0384 28.5344L32.848 27.9136L31.4112 27.3536L31.1264 27.1232L31.4112 26.9248L32.0576 27.2384L33.248 27.4368L34.5216 27.9456L35.1968 28.2848L36.3872 28.4544L37.2416 28.3392L37.7184 28.1152L38.3712 27.7152L38.656 27.44L38.688 27.2416L38.4224 27.264L38.1696 27.5264L37.3248 27.8048L36.5888 27.92L35.9648 27.8368L35.3664 27.36L34.8288 26.7296L34.1824 26.2528L33.216 26.0544L32.2848 25.7408L31.8848 25.488L31.9168 25.264L32.2848 25.3184H33.1072L33.9296 25.264H34.7744L35.2288 25.1808L35.5968 25.488L36.1888 25.6352H36.672L36.896 25.4656L36.5056 25.3504L36.0224 25.0368L35.5136 24.56L34.6912 24.128L34.016 24.0448L33.3952 23.9616L33.1648 23.824L33.6192 23.5712H34.3552L34.9248 23.7408L35.4848 24.0256L36.3904 24.416L37.296 24.448L37.7792 24.2176L37.9168 23.9104L37.5488 23.7408L36.7872 23.7088L36.1344 23.4848L35.568 23.0016L34.944 22.688L34.1216 22.5504L33.4144 22.2976L33.1072 21.8976L33.1616 21.6992L33.616 21.792L34.1856 21.9616L34.5248 22.2144L35.008 22.2688L35.0624 22.016L34.5568 21.616L34.4096 21.2544L35.0912 21.3632L35.7376 21.7024L36.56 21.7952L36.8768 22.3872L37.7216 22.896L37.7664 22.8896L37.952 22.8128L38.176 22.6752L38.0672 22.5056L37.7504 22.528L37.4656 22.1376L36.896 21.2608L35.904 20.3776L34.8896 19.9232L34.6048 19.584L33.9808 18.848L33.4112 18.5408L33.328 18.256L33.5808 18.0864L34.1792 18.224L35.3632 18.5632L35.9328 18.7616L36.3008 19.2768L36.8928 19.584H37.3472L37.9456 19.7536L38.5984 19.6384L38.8512 19.4144L38.4832 19.1008L37.9456 18.9632L37.3216 18.88L36.9536 18.5664L36.4704 17.8592L36.3552 17.4048L35.7312 16.8448L35.056 16.4128L34.288 15.936L33.4432 15.1456L33.3888 14.9152H33.5808L34.688 15.792L35.8176 16.4448L36.416 16.8992L37.1776 17.6064L37.8592 17.9744L38.2528 18.0896L38.4512 17.776L38.1664 17.6672L37.5744 17.1296L37.4048 16.5312L36.784 15.856L36.2688 15.424L36.016 14.7776L35.1392 13.472L33.9488 12.4256L33.8944 12.0864L34.3168 12.1408L34.9152 12.448L35.8752 12.848L36.8672 12.9024L37.6032 13.248L38.3936 13.3856L39.0688 13.1872L39.0144 12.9024L38.2464 12.7328L37.5712 12.4256L36.2112 11.7728L35.4752 11.3728L35.0816 10.896L35.2192 10.7264L35.4176 10.864L35.7248 10.9792L36.1248 11.0112H36.7776L37.3376 10.9504L38.192 10.896L38.8448 11.1488L39.52 11.632L39.8048 11.7152L39.8368 11.4624L39.6064 11.232L38.9312 10.608L37.8784 10.0704L37.1168 9.9872L35.6736 9.904L35.3376 9.504L34.6016 8.768L33.7792 8.208L33.472 7.9232L33.7248 7.7248L34.1152 7.8944L34.8224 8.2624L35.6224 8.5472L36.6976 8.8H37.6288L38.3968 9.6544L39.0208 10.0224L39.2448 9.792L38.4 8.5472L37.072 7.5872L35.9648 7.3248L35.0272 6.3424L34.2048 5.8592L33.0752 5.5744L33.6992 5.0368L34.8064 4.6688L35.6288 4.416L35.8208 4.1632L35.712 3.9648L35.2576 3.8496L34.8288 3.7664L31.632 3.8272L31.0624 3.1968L30.416 2.7744L29.5936 2.4064L28.5184 2.2368H27.5872L27.3344 1.8976L26.4576 0.96L25.4048 0L24.7584 1.0752L24.7264 1.4144L25.0336 1.8144L25.0656 2.1536L24.8416 2.352L24.128 2.4064L22.8288 2.0384L21.552 1.7632L20.96 1.7856L19.9936 1.984L20.1088 2.3232L20.6464 2.3008L20.8704 2.3392L20.864 2.64L20.5504 2.7104L20.144 2.656L19.5296 2.7872L19.0688 2.9344L18.7008 2.9568L18.5856 3.1168L18.7168 3.3408L18.9952 3.4016L19.2576 3.3248L19.5584 3.1936L19.8656 3.1776L20.5184 3.2096L21.0176 3.3632L21.6096 3.5104L22.4768 3.9008L22.5536 4.0864L22.4608 4.2336L22.0544 4.3808L21.808 4.496L21.3696 4.7872L20.7008 5.1424L19.888 5.7184L18.944 6.096L18.208 6.5792L17.5392 6.8704L16.9088 7.024L16.3552 7.04L15.5936 7.056L15.3024 7.1328L15.1328 7.488L15.0016 7.872L14.8544 8.1344L14.4864 8.688L14.1312 9.3024L13.8944 9.6032L13.872 9.9488L13.8944 10.432V10.9472L14.208 11.232L14.4864 11.3792L14.816 11.3568L15.3536 11.2096L15.9616 11.024L16.784 10.6944L17.1136 10.7104L17.1904 10.9184L17.1136 11.1168L16.8352 11.264L15.9968 11.5776L15.3664 11.7632L15.2448 11.9712L15.2224 12.1952L15.4304 12.3808L15.8688 12.4352H16.224L16.6688 12.4192L17.152 12.304L17.8528 11.936L18.3136 11.8432L18.704 11.7664L19.0048 11.8656L19.4432 11.8432L19.8752 11.8976L20.2304 12.1056L20.784 12.16L21.5072 12.384L21.8976 12.4384L22.5056 12.3296L23.2832 12.384L23.6224 12.5152L23.808 12.8288L23.7696 13.2352L23.6768 13.7344L23.4912 14.3104L23.2288 15.0336L22.9664 15.824L22.688 16.5472L22.5024 17.0464L21.872 18.0288L21.1104 18.9888L20.4256 19.9328L19.5584 20.8L18.7584 21.4752L18.2496 22.0128L17.9808 22.896L17.6096 23.3344L17.1328 23.6736L16.5568 24.1504L15.6736 24.688L14.928 25.0624L14.4512 25.6064L14.112 26.048L13.7728 26.256L13.296 26.4928L12.9888 26.4224L12.3808 26.144L11.7056 25.7056L10.7136 25.2672L9.6 24.6848L9.024 24.2464L8.3104 23.6704L7.5264 23.024L6.6816 22.7168L5.936 22.5856L4.9824 22.784L4.3072 23.1616L3.7248 23.568L3.424 24.3136L3.216 24.8896L2.9792 25.7728L2.7104 26.3104L2.4416 27.1328L2.4032 28.1152L2.1664 28.6912L1.8976 29.6064L1.6608 30.5216L1.2224 31.376L0.9856 32.2208L0.848 33.2736L0.4704 34.1568L0.2336 34.6624L0.2016 35.1712L0.1696 36.0256V37.5168L0 38.1312L0.0992002 38.6688L0.0607998 39.552L0.368 40.2592L0.6048 40.4288L1.0432 40.2912L1.4496 39.9232L2.032 39.216L2.5408 38.4032L2.7392 37.728L2.608 37.184L2.4384 36.5088L2.2304 35.696L2.032 34.8448L1.9232 34.1984V33.5904L2.0608 32.9056L2.4 31.8592L2.7392 31.3152L3.0464 31.04L3.2832 30.672L3.7216 30.6336L3.9296 30.5024L4.2368 30.224L4.576 29.9232L4.8832 29.5168L5.0144 29.04L5.1232 28.6336L5.1552 28.0896L5.2544 27.6128L5.4912 27.312L5.728 27.2416L6.0352 27.3408L6.4736 27.5776L6.9504 28.1216L7.4592 28.8672L8.0352 29.5424L8.6496 30.0864L9.1936 30.5248L9.7312 30.7616L9.9008 31.1008L9.7312 31.2704L9.1552 31.1392L8.3424 31.0688L7.2896 30.8608L6.2752 30.6624L5.0528 30.624L4.3392 30.6624L3.7952 31.0016L3.2192 31.5072L2.7424 32.32L2.3744 33.2416L2.336 33.9168L2.544 35.1392L3.0208 36.6976L3.2576 37.92L3.5584 39.1104L3.7664 39.9488L3.8656 40.7328L4.1344 41.616L4.3424 42.9696L4.5408 43.4464L5.056 43.8528L5.5328 44.3296L6.0704 45.1456L6.448 46.0992L7.024 46.944L7.8688 47.7568L8.48 48.1344L8.8864 48.1664L9.2256 48.0672L9.4336 47.5904L9.664 47.184L9.8016 46.608V45.2864L9.632 44.9088C9.6 44.9088 9.6 44.672 9.6 44.64L9.5296 44.4032L9.2512 43.9968L8.7424 43.488L7.7984 43.0816L7.4528 42.9728L7.392 42.3968L7.424 42.0288L6.7776 41.2832L6.3712 40.3296L6.032 38.976L5.7568 37.7248L5.2896 36.7424L5.12 35.552L5.3888 34.8384L5.8656 34.5696H6.2336L6.7776 35.0464L7.5616 35.5232L8.3744 35.824L10.3424 36.7776L11.296 37.3216V37.8272L12.1728 38.3328L13.296 38.7104H15.6384L15.4688 39.1488L15.3696 39.3856L15.6704 39.9552L16.2464 40.8096L17.168 41.7248L18.2816 42.9472L19.2352 43.792L21.0176 45.1584L22.4608 45.9328L23.5456 46.5088L24.9376 47.4528L26.2208 48.368L27.328 49.3056L28.48 50.864L28.5344 51.5168L28.7968 52.192L29.504 52.7008L30.1504 52.9536L30.5504 52.8992L30.8672 52.592L31.3216 52.1088L31.4304 51.456L31.968 50.5248L32.0832 49.8112L32.1696 49.0208L32.224 48.3968L32.4 48.0064L32.7616 47.8304H33.1072L33.1296 48.0928L32.8768 48.368L32.6528 48.9664L32.4832 49.3344V49.7888L32.4224 50.7488L32.2848 51.232L31.8624 51.9616L31.2928 52.8992L30.7264 53.92L30.3904 55.248L30.2208 56.64L30.3904 58.192L30.6144 59.0976L31.152 60.288L31.8368 61.7024L32.3744 62.8096L33.1104 63.9712L33.9872 65.0464L34.1568 65.4144V65.6672L34.0416 65.9808L33.7344 66.4896L33.2512 67.1648L32.2592 68.4416L31.2672 69.5168L30.3616 70.5088L29.9712 70.7392L29.1712 71.0464L28.6944 71.5008L28.4416 72.016L27.872 72.7232L27.2288 73.4304L26.4384 74.2528L25.9552 75.0976L25.6704 75.952L25.5008 76.6592L25.5328 77.2288L25.872 77.5904H27.1168L27.6544 77.536L28.2176 77.2L28.9536 76.8608L29.0688 76.576H29.3216L29.712 76.4064L30.08 76.0608L30.2816 74.7072L30.1664 74.4224L30.112 74.1376L30.3136 74.192L30.5344 74.2528L30.7648 74.0832L31.1328 73.8528L31.5232 73.344L32.0064 72.6592L32.2592 72.0384L32.3136 71.5296L32.6304 71.2992L33.0848 71.0464L33.4528 70.8224L33.76 70.2016L34.4128 69.52L35.632 68.3904L36.56 67.7696L37.4976 67.2544L37.7184 67.0304L37.8048 66.8L38.0032 66.5472L37.8656 66.2112L37.8368 65.5872L37.712 65.0048L37.5648 64.6656L37.2416 64.112L36.7264 63.4656L36.4736 62.9824L36.4192 62.4736V61.792L36.5344 61.4016L36.8416 60.3488L37.1552 59.84L37.4944 59.6416L38.1152 59.2512L38.8512 58.6208L39.8432 57.776L40.5184 57.0688L41.2 56.2784L41.9072 55.4784L42.416 54.5792L42.8384 53.8112L43.2384 52.9344L43.5232 51.9648L43.6096 51.0656L43.664 50.3808L43.8944 50.1568L44.1472 50.096L44.3712 50.2432L44.5696 50.72L44.624 51.3728L44.7168 51.9936L44.656 52.416L44.6016 53.0688V54.4608L44.7712 55.5584L44.9696 55.8432L45.1392 55.8208L45.2224 55.6224L45.1072 55.168V54.4L45.3376 53.7536L45.4464 52.816L45.5616 52.1632L45.7088 51.856H45.8784L46.016 51.9936L46.1536 52.5312L46.2688 53.0464L46.2144 53.8592L46.0448 54.9664L45.5296 56.0416L45.0528 57.0624L44.768 57.9392L44.7136 58.4768L44.768 59.0976L44.9664 59.696H45.3344L45.5264 59.4336L45.4176 59.1488L45.3344 58.64L45.6704 58.1856L46.064 57.648L46.3264 57.1424L46.9472 56.1504L47.456 55.2448L47.68 54.2528L47.8784 52.9472V51.6544L47.6256 50.7488L47.1168 50.0416L47.056 49.7056L47.2864 49.5904L47.5712 49.728L47.9392 50.1824L48.3936 51.0048L48.5856 51.9648L48.7008 53.2416L48.9856 54.1248L49.0176 54.1472L49.408 55.024L49.6608 55.1168L49.776 54.8864L49.7472 54.7488L49.5552 54.096L49.5264 53.4432L49.5552 52.4832L49.7248 51.408V50.8704L49.664 50.416L49.2096 49.5072L48.8192 48.8544L48.9568 48.6016L49.4944 48.4864L50.2304 48.1504L51.0208 47.728L51.728 47.1072L52.6336 45.8848L53.1488 44.8704L53.5712 43.904L53.7088 42.352L53.7408 40.96L53.5168 39.2384L53.2544 37.9936L53.0304 36.7168L52.8928 35.3888L53.0016 34.544L53.232 33.4912L53.7088 32.4448L54.3904 31.3696L54.6432 30.6848L54.6976 30.3456L54.4704 30.0352ZM15.9712 9.5424L15.7472 9.7664L15.4336 9.9424L15.0112 10.0352L14.864 9.9424L14.8096 9.6416L14.9344 9.2192L15.2352 8.8032L15.4816 8.6816L15.7056 8.704L15.9744 8.928L16.096 9.1264L15.9712 9.5424ZM17.0752 9.2672L16.9984 9.3056L16.8448 9.312L16.7232 9.2512L16.624 9.136L16.64 8.9984L16.7552 8.8128L16.848 8.752H16.9696L17.0784 8.7744L17.1168 8.8896L17.1328 9.0912L17.0752 9.2672ZM18.4448 10.528L18.3296 10.5824H18.1824L18.0992 10.5376L18.0544 10.4128L18.0704 10.2592L18.1536 10.1664L18.2624 10.16L18.3776 10.192L18.432 10.2752L18.4704 10.4128L18.4448 10.528ZM21.0624 6.5632L20.8864 6.6112L20.672 6.6656L20.4352 6.864L19.904 7.1872L19.1744 7.3856L18.72 7.5008L18.2816 7.5328L18.0576 7.5104L18.4128 7.2096L19.0656 6.896L19.7184 6.6048L20.3392 6.3136L20.624 6.176L20.8384 6.144L21.0144 6.1824L21.152 6.4064L21.0624 6.5632ZM1.28 38.4096L1.0496 38.3552L0.934401 38.1312L1.1648 38.016L1.3664 38.0384L1.4208 38.2368L1.28 38.4096ZM4.2528 26.5312L4.0928 27.1296L3.8848 27.8048L3.5168 28.3744L3.3184 28.4288L3.248 28.2752V27.9744L3.2864 27.568L3.4336 26.8L3.7568 26.24L3.9264 26.0416L4.1728 25.9712L4.2656 26.1088L4.2528 26.5312ZM5.8912 24.2784L5.5232 24.416L5.1712 24.4544L4.9568 24.3712L4.9024 24.2176L4.9632 24.0096L5.1488 23.8784L5.5328 23.8336L5.7312 23.8176L5.8688 23.856L5.9904 23.9712L5.9968 24.1024L5.8912 24.2784ZM8.8928 28.3296L8.816 28.336L8.6304 28.2208L8.3712 28.0736L8.1472 27.888L7.9392 27.68L7.8464 27.5648L7.824 27.3952L7.8688 27.312L7.9456 27.3184L8.0768 27.3408L8.224 27.472L8.3936 27.6256L8.6624 27.7856L8.8224 27.9776L8.9216 28.1248L8.928 28.256L8.8928 28.3296ZM3.8464 32.3616L3.7088 32.5536L3.5712 32.608L3.4784 32.5312L3.4848 32.256L3.7152 31.856L3.7856 31.7408L3.9008 31.6864L4.0096 31.7568V31.9872L3.9392 32.1472L3.8464 32.3616ZM4.8064 39.5008L4.7616 39.5712H4.7072L4.608 39.488L4.5312 39.3408L4.4096 39.072L4.2336 38.72L4.0576 38.1664L3.9648 37.6448L3.9488 37.0368L4.032 36.4384L4.0768 36.368H4.16L4.2432 36.4448L4.3264 36.8064L4.3328 37.1744L4.48 37.6416L4.656 38.1408L4.7328 38.5792L4.8416 39.2928L4.8064 39.5008ZM8.2336 46.0384L8.3264 46.016L8.5504 46.064L8.6496 46.1728L8.672 46.304L8.6496 46.4576L8.5184 46.5568L8.3584 46.528L8.2432 46.4192L8.1952 46.1824L8.2336 46.0384ZM10.4544 35.6896L10.224 35.7056L9.9232 35.6608L9.7152 35.568L9.232 35.2672L8.7552 34.912L8.2176 34.5888L8.032 34.4512L8.2784 34.4448L8.5472 34.544L9.008 34.6592L9.4304 34.8672L9.9232 35.0816L10.2752 35.2416L10.4608 35.4112L10.4928 35.5648L10.4544 35.6896ZM13.0112 29.0656L12.688 29.9712L12.4032 30.8384L11.904 31.4592L11.6512 31.6512L11.3824 31.7504L11.2288 31.6416L11.2128 31.4432L11.4272 31.2128L11.6512 30.8448L11.936 30.224L12.1056 29.632L12.2592 29.0496L12.56 28.4896L12.7616 28.2048L12.9312 28.1568L13.0848 28.2176L13.1328 28.4032L13.0112 29.0656ZM25.3344 11.0944L25.5872 10.7712L25.8784 10.496L26.1408 10.32L26.3328 10.304L26.464 10.3872V10.624L26.3936 10.8864L26.1024 11.1648L25.7568 11.3792L25.4048 11.472L25.2352 11.4176L25.2128 11.28L25.3344 11.0944ZM24.3072 5.1328L24.5536 5.0496L24.7232 4.9728L24.9376 5.0496L25.008 5.2032L24.848 5.3888L24.624 5.472L24.3552 5.488L24.256 5.3024L24.3072 5.1328ZM22.1696 7.1232L22.0704 6.8544L22.2176 6.5536L22.5408 6.2848L23.056 6.2624L23.4336 6.3328L23.7248 6.5344L23.872 6.88L23.9936 7.248L23.9712 7.5712L23.648 7.6928H23.3024L22.8864 7.5232L22.5184 7.3248L22.1696 7.1232ZM23.4304 11.0656L22.992 11.1648H22.5984L22.528 11.0336L22.6272 10.896L22.7424 10.8256L23.5104 10.2816L23.9776 9.9904L24.2624 9.8144H24.3616L24.3776 10.0224L24.1856 10.176L24.0928 10.4928L23.856 10.8608L23.4304 11.0656ZM18.3136 25.1104L18.2592 25.0272L18.2752 24.8192L18.4128 24.6656L18.896 24.4672L19.904 24.1536L20.912 24.0288H21.5264L22.032 24.1376L22.5088 24.3744L22.8864 24.7424L22.9088 24.9504L22.864 25.0976L22.704 25.1296L22.4576 25.0976L22.08 24.9888L21.7248 24.8832L21.2864 24.8352H20.7424L20.2816 24.8288L19.8752 24.8672L19.4208 24.944L19.0592 25.0432L18.7072 25.12L18.4768 25.136L18.3136 25.1104ZM24.6912 45.9616L24.176 45.6384L23.3088 45.0624L21.9648 44.1568L21.4208 43.7888L20.8448 43.3376L20.2144 42.7616L19.7536 42.4L19.2 41.8624L18.8384 41.4848L18.6144 41.1392L18.5312 40.7232L18.5472 40.3392L18.6944 40.192L18.9472 40.208L19.3472 40.448L19.776 40.864L20.0928 41.248L20.432 41.5872L20.7616 41.9936L21.1776 42.448L21.5712 42.8864L22.8608 44.0064L23.5744 44.6432L24.2112 45.2192L24.7264 45.7024L24.8256 45.8624L24.896 45.9776L24.6912 45.9616ZM25.0368 28.3968L24.8768 28.4896L24.4864 28.496L24.224 28.4352L24.0768 28.2432L23.9552 28.0896V27.8432L24.1472 27.5968L24.4384 27.3664L24.7136 27.328L24.9664 27.3984L25.0432 27.536L25.0752 27.8432L25.1136 28.1664L25.0368 28.3968ZM25.8112 15.7344L25.6512 16.3264L25.2896 17.2704L24.8064 18.0704L24.2688 19.0688L23.408 20.2752L22.7552 20.96L22.3008 21.136L22.1536 21.1296L22.1312 21.0144L22.2688 20.6912L22.8224 19.8368L23.2768 18.8992L23.6832 18.0928L24.4064 16.6944L25.0912 15.6032L25.4432 15.264L25.712 15.2192L25.8272 15.4048L25.8112 15.7344ZM27.3888 11.632L27.3056 11.84L27.0048 12.192L26.5888 12.3904L26.1728 12.56L25.7408 12.5664H25.472L25.3792 12.4416L25.4784 12.2656L25.7152 12.1568L26.1312 11.9552L26.608 11.664L26.832 11.504L27.1712 11.3408L27.3856 11.3952V11.632H27.3888ZM29.6384 24.5952L29.4848 24.64L29.2864 24.624L29.1552 24.4928L29.1872 24.3776L29.3184 24.2848L29.5168 24.2688L29.6864 24.4064L29.6928 24.5216L29.6384 24.5952ZM29.8688 23.8432H29.6384L29.5136 23.7728V23.6032L29.568 23.488L29.6896 23.4496H29.8528L30.0064 23.5488L30.0224 23.6704L29.8688 23.8432ZM30.2912 22.6816L30.1344 22.7584L29.9744 22.7808L29.8048 22.7424L29.7504 22.6272V22.4896L29.888 22.3904L30.0576 22.3584H30.2208L30.32 22.4416L30.3424 22.5728L30.2912 22.6816ZM30.5056 21.7056L30.2976 21.7664L30.0672 21.76L29.9456 21.6768L29.9392 21.584L29.9776 21.4464L30.16 21.3632L30.3616 21.3344L30.5312 21.4176L30.592 21.5776L30.5056 21.7056ZM31.0048 20.3392L30.8896 20.4928L30.7808 20.6304L30.5664 20.6752H30.352L30.1664 20.5824L30.1504 20.4352L30.2816 20.2976L30.3808 20.1824L30.528 20.128L30.7648 20.0576H30.9504L31.0336 20.1568L31.0048 20.3392ZM31.312 19.1936L31.2128 19.3536L31.0368 19.3856L30.8512 19.4336L30.6208 19.4272L30.5216 19.312L30.5376 19.1424L30.6144 19.0272L30.768 18.9184L31.0048 18.8864L31.2192 18.9312L31.312 19.0624V19.1936ZM31.6352 18.3488L31.3984 18.448L31.2128 18.5088H30.9824L30.8896 18.4928L30.7744 18.4544L30.7136 18.3392L30.7424 18.192L30.896 18.0544L31.0272 17.984L31.1744 17.9232L31.3824 17.9168L31.584 17.9872L31.6672 18.1472L31.6352 18.3488ZM31.6672 17.0336L31.584 17.1712L31.4368 17.2928L31.2224 17.3696L30.9696 17.392L30.7616 17.3632L30.7072 17.2384L30.7392 17.1392L30.8224 17.0784L31.1904 16.8864L31.3664 16.848L31.584 16.8704L31.6672 16.9472V17.0336ZM30.9504 13.9232H31.0816L31.152 13.8784L31.1808 13.7408L31.2096 13.6352L31.2736 13.5584L31.3888 13.552L31.5264 13.5904L31.6512 13.6608L31.6672 13.808L31.6512 14.0448L31.4688 14.2048L31.2288 14.32L31.1296 14.304L31.0304 14.2656L30.9312 14.1408L30.9152 14.0032L30.9504 13.9232ZM30.9504 12.9408V12.8256L31.0528 12.7264L31.2128 12.6656L31.4048 12.6592L31.52 12.6976L31.552 12.7968L31.488 12.896L31.3888 13.0048L31.2256 13.0432H31.056L30.9504 12.9408ZM30.96 16.0512L31.0976 15.968L31.2608 15.9296L31.4208 15.9136L31.536 15.92L31.5808 15.9904V16.1056L31.5264 16.2272L31.4176 16.3488L31.1488 16.464L31.0176 16.448L30.896 16.4096L30.864 16.2784L30.8896 16.1312L30.96 16.0512ZM31.6512 15.1072L31.6128 15.2064L31.4432 15.3216L31.2128 15.4048L31.0848 15.3728L30.96 15.3024L30.9376 15.1776L30.9536 15.024L31.0464 14.9312L31.1776 14.8384L31.3696 14.8L31.5328 14.7936L31.6416 14.8256L31.68 14.9344L31.6512 15.1072ZM31.712 11.856L31.6896 11.9872L31.6064 12.1024L31.4688 12.1568L31.3376 12.1888L31.2224 12.2048L31.0688 12.1888L31.0304 12.096L31.0688 11.9744L31.1616 11.8912L31.264 11.8368L31.4336 11.7216L31.6096 11.728L31.712 11.856ZM31.4752 10.7264L31.568 10.7808L31.584 10.912L31.5744 11.0368L31.4304 11.168L31.2928 11.2224L31.2 11.2064L31.1296 11.168V11.0432L31.136 10.912L31.2352 10.8064L31.328 10.752L31.4752 10.7264ZM31.296 10.0896L31.2576 10.2272L31.1552 10.304L31.0624 10.3584L30.9376 10.3744L30.8384 10.3136L30.816 10.2048L30.8608 10.112L30.9536 9.9872L31.0464 9.9424L31.168 9.936L31.2704 9.9968L31.296 10.0896ZM30.0384 7.6064L30.2624 7.5904L30.576 7.4688L30.8608 7.408L31.0976 7.392L31.2192 7.5072L31.0496 7.76L30.88 7.8048L30.5984 7.904L30.2304 8.112L29.8784 8.2976L29.472 8.4672L29.3344 8.4832L29.2192 8.4448L29.2352 8.2752L29.1744 8.1152V7.824L29.3056 7.4944L29.488 7.296L29.6064 7.1424L29.728 6.9888H29.9136L30.0416 7.12L30.0128 7.4432L30.0384 7.6064ZM29.9072 4.5504L29.9904 4.6048L29.9616 4.688L29.8368 4.8352L29.6672 4.8512L29.4656 4.8224L29.3504 4.768L29.2672 4.6688L29.3664 4.5856L29.5104 4.5248L29.7344 4.5184L29.9072 4.5504ZM28.848 3.36L29.232 3.3216L29.44 3.392L29.6032 3.4752L29.6096 3.6128L29.472 3.6736L29.2576 3.6896L29.0496 3.6736L28.8864 3.6416L28.7488 3.5424L28.848 3.36ZM31.8208 43.2576L31.6352 43.4272L31.4656 43.6192L31.296 43.9744L31.2416 44.2208L31.1264 44.3136L30.9024 44.2848L30.7936 44.1536L30.832 43.6864L30.9536 43.1008L31.0144 42.7776L31.1616 42.3712L31.2704 42.2496L31.4304 42.2176H31.6448L31.7376 42.304L31.8976 42.5408L31.9296 42.9952L31.8208 43.2576ZM32.1888 37.7024L31.2192 37.1936L30.7136 36.7104L29.8688 35.8656L29.1008 34.896L28.4256 33.7984L27.888 32.4384L27.664 31.5008L27.7696 30.9632L28.0768 30.88L28.3904 31.0272L28.592 31.5872L28.7616 32.4096L29.0688 33.264L29.8688 34.5088L30.944 36.0928L32.1888 37.7024ZM32.2592 54.2272L32.0416 54.8256L31.936 55.1168L31.7344 55.5712L31.5808 56.1024L31.536 56.256L31.4816 56.3552H31.3344L31.2192 56.0096L31.2128 55.616L31.296 55.0784L31.488 54.3424L31.8048 53.888L32.0896 53.536L32.3424 53.504L32.4128 53.7344L32.2592 54.2272ZM33.3792 62.2656L33.3248 62.272L33.2256 62.2272L33.04 61.9584L32.7648 61.504L32.6336 61.2032L32.5568 60.7872V60.4032L32.5728 60.1728L32.6272 60.1024H32.7488L32.88 60.1568L33.0496 60.3552L33.1744 60.7008L33.2576 61.1616L33.264 61.5296L33.2704 61.6608L33.3408 61.8368L33.4112 62.192L33.3792 62.2656ZM27.7024 75.5488L27.5872 75.7728L27.4496 75.9808L27.2256 76.128L27.0112 76.1728H26.9184L26.8192 76.096L26.7872 75.936L26.8256 75.7344L26.9408 75.504L27.2544 75.1904L27.4912 75.0432L27.6608 75.0368L27.7472 75.1072L27.7696 75.2672L27.7024 75.5488ZM29.808 72.1536L29.6896 72.3136L29.5456 72.3968L29.3696 72.4576L29.2384 72.4192L29.1616 72.2816L29.1776 72.144L29.3088 71.9808L29.5712 71.8208L29.7632 71.7888L29.856 71.8432L29.8816 71.9808L29.808 72.1536ZM34.5088 67.4656L34.1696 67.9648L33.7152 68.496L33.2 68.9952L32.656 69.5648L32.1472 70.0256L31.7472 70.3872L31.5232 70.5344L31.376 70.528L31.3056 70.4128L31.3376 70.2208L31.9616 69.5296L32.8352 68.5856L33.8976 67.5168L34.096 67.3024L34.3968 67.1104L34.5056 67.1328L34.5952 67.248L34.5088 67.4656ZM36.4672 65.952L36.5984 65.904L36.768 65.9104L36.8448 65.9488L36.8512 66.032L36.784 66.1408L36.6304 66.2784L36.4928 66.432H36.4L36.2944 66.3712L36.2688 66.24L36.3136 66.1088L36.4672 65.952ZM42.1376 50.4864L42.1056 50.7392L42.0288 50.976L41.9808 51.1904L41.8208 51.2832L41.6736 51.2448L41.6 51.1072L41.552 50.624L41.2288 50.1792L41.2 49.8112L41.3824 49.5808L41.5744 49.52L41.76 49.536L41.9136 49.6736L42.0896 49.8976L42.1376 50.1504V50.4864ZM51.7056 41.7056L51.6896 42.0672L51.5456 42.8576L51.344 43.5328L51.1136 44.1248L50.768 44.768L50.3744 45.3216L49.7824 46.0128L49.1072 46.6592L48.7616 46.7424L48.576 46.6592L48.5472 46.4128L48.6944 46.0832L48.8928 45.7216L49.2544 45.2448L49.6448 44.7136L50.0128 44.1376L50.3744 43.5456L50.6496 42.9696L50.8128 42.3776L50.9504 41.7024L50.9824 40.9504L51.0112 40.2752L50.9664 39.6832L50.896 38.9984L50.8352 38.352L50.7968 37.9904L50.9952 37.792L51.1264 37.8624L51.2256 38.176L51.424 38.7968L51.5872 39.5424L51.7024 40.256V41.7056H51.7056Z" fill="white"/>
</svg>
